<svg width="42" height="40" viewBox="0 0 42 40" fill="none" xmlns="http://www.w3.org/2000/svg">
<path d="M11.4815 0.42963C11.3665 0.50354 11.153 0.758116 11.0052 1.00448C10.8491 1.25084 10.1429 2.05563 9.43666 2.79472C7.84351 4.44535 6.67739 5.88247 5.38809 7.81232C4.27945 9.47117 3.34327 11.2696 2.9573 12.5014C1.81582 16.1148 2.53849 19.6542 4.87894 21.9043C5.60982 22.6023 6.07791 22.9144 6.29963 22.8405C6.46388 22.7912 6.47209 22.7255 6.4803 21.6251C6.48851 20.9845 6.48851 20.4343 6.4803 20.3933C6.44745 20.188 6.73487 16.7389 6.84163 16.0819C7.0223 14.9322 7.33436 13.7743 7.67106 12.9613C8.0406 12.0662 8.15557 11.9348 8.08166 12.5014C7.2933 18.8001 8.67293 24.7046 12.2288 30.2396C12.7297 31.0115 12.935 31.1758 13.4031 31.1758C13.8301 31.1758 14.0601 30.9294 14.3064 30.215C15.1194 27.8991 15.875 26.1007 16.9097 24.0312C18.7328 20.4015 20.4984 17.8804 23.0195 15.3593C24.8262 13.5444 26.7478 12.0498 28.6119 11.0068C29.039 10.7687 29.1622 10.7358 29.3018 10.8097C29.6385 10.9904 29.4989 11.2286 28.5134 12.2058C26.3947 14.2999 24.7523 16.4515 23.4383 18.833C23.1345 19.3832 22.8963 19.9005 22.9127 19.9827C22.9456 20.1715 23.5779 20.4015 24.4566 20.5493C26.6985 20.9189 28.9076 20.344 30.7717 18.9069C31.5026 18.3402 32.5784 17.1577 33.2107 16.2215C33.531 15.7534 34.3522 14.4231 35.042 13.2734C36.5941 10.6619 37.1772 9.84071 38.2119 8.78956C39.1317 7.86159 39.9529 7.27853 40.9055 6.90078C41.6281 6.60514 41.9156 6.38341 41.9895 6.04672C42.0552 5.72644 41.8417 5.25835 41.5624 5.11875C41.4393 5.05305 40.8151 4.93808 40.1828 4.86417C34.1633 4.17435 30.123 4.4782 26.6082 5.88247C24.1856 6.8515 22.0176 8.4118 20.7119 10.1363C20.1042 10.9493 19.3651 12.4029 19.1598 13.1913C18.9463 14.0289 18.9052 15.4003 19.0777 16.2215L19.2173 16.9031L19.0202 17.1659C17.3449 19.4653 16.3923 21.0338 15.1769 23.4975C14.6924 24.4911 14.0765 25.8215 13.8219 26.4538C13.5591 27.0861 13.3128 27.6528 13.2635 27.7103C13.2142 27.7678 13.0828 27.8088 12.9679 27.7924C12.779 27.7678 12.6722 27.6117 12.1713 26.6181C11.5964 25.4766 10.9477 23.9245 10.8574 23.4728C10.8163 23.2593 10.8656 23.1936 11.3911 22.7666C14.52 20.2455 15.604 17.0345 14.5117 13.5197C14.4214 13.2241 13.978 12.2304 13.5345 11.3025C12.2863 8.71565 11.8921 7.34423 11.8921 5.51293C11.8921 4.42072 12.0399 3.61593 12.4669 2.32663C12.8775 1.11124 12.8775 0.938782 12.5162 0.57745C12.2041 0.265388 11.8346 0.207903 11.4815 0.42963Z" fill="url(#paint0_linear_40432_2559)"/>
<path d="M21.6631 26.9976C19.0598 27.2358 16.7194 29.3463 16.1117 31.9824C15.9556 32.6558 15.7585 32.8775 15.0112 33.2224C13.5413 33.904 12.3177 33.7069 11.0202 32.5736C10.2154 31.8756 9.78834 31.6046 9.18885 31.4239C7.95704 31.038 6.51992 31.3418 5.47698 32.2041C4.77074 32.7954 4.41762 33.3045 3.80171 34.6513C3.62925 35.0126 3.5225 35.0783 2.74234 35.3001C1.10813 35.7517 0.319772 36.6058 0.0569841 38.2318C-0.0661976 38.9955 -0.000500726 39.3158 0.360832 39.636L0.656468 39.8906L17.2203 39.8414C26.3275 39.8167 33.973 39.7757 34.2112 39.751C34.9913 39.6689 35.328 39.1926 35.213 38.3221C35.0077 36.8439 34.3179 35.7435 33.2503 35.2015C32.6262 34.8894 32.2156 34.7909 31.2548 34.717C30.4993 34.6595 30.4172 34.6349 30.1954 34.4131C30.0394 34.2571 29.908 33.9861 29.8095 33.633C29.4646 32.3848 28.6844 31.621 27.4526 31.3336C26.2947 31.0626 26.0894 30.8984 25.9744 30.1346C25.7691 28.7796 24.718 27.515 23.4779 27.1618C22.821 26.9648 22.3693 26.9237 21.6631 26.9976Z" fill="url(#paint1_linear_40432_2559)"/>
<defs>
<linearGradient id="paint0_linear_40432_2559" x1="6.94067" y1="41.3291" x2="103.696" y2="-65.9911" gradientUnits="userSpaceOnUse">
<stop stop-color="#A854E9"/>
<stop offset="1" stop-color="#4F91FC"/>
</linearGradient>
<linearGradient id="paint1_linear_40432_2559" x1="4.0197" y1="44.1412" x2="33.2866" y2="-24.8977" gradientUnits="userSpaceOnUse">
<stop stop-color="#A854E9"/>
<stop offset="1" stop-color="#4F91FC"/>
</linearGradient>
</defs>
</svg>
