<svg width="36" height="42" viewBox="0 0 36 42" fill="none" xmlns="http://www.w3.org/2000/svg">
<path d="M6.11057 0.821663C3.98322 1.33451 1.83688 3.06298 0.830184 5.05737C-1.16421 8.98917 0.564265 13.8897 4.62902 15.7891C5.63572 16.2639 6.22454 16.4159 7.44016 16.4729C10.0044 16.6058 11.9038 15.8841 13.6893 14.0606L14.62 13.1109L15.9116 14.3075C17.697 15.998 18.7797 16.4159 21.4009 16.4159C23.3003 16.4159 23.4713 16.3779 24.7249 15.7701C29.6444 13.3388 30.822 7.08975 27.0992 3.13896C23.9461 -0.204023 18.9506 -0.242012 15.6647 3.02499L14.601 4.08867L13.8412 3.23393C11.9988 1.10658 8.90272 0.137871 6.11057 0.821663ZM9.03568 6.15903C10.0234 6.65288 10.5742 7.50762 10.5742 8.49532C10.5742 10.1478 9.51053 11.1925 7.83904 11.1925C6.31951 11.1925 5.0469 9.59698 5.33181 8.05845C5.65471 6.38696 7.57312 5.39927 9.03568 6.15903ZM22.4646 6.17803C24.193 6.99478 24.5159 9.17911 23.1104 10.5277C22.6735 10.9456 22.3316 11.0785 21.5529 11.1355C19.8814 11.2685 18.6847 10.2238 18.6847 8.64727C18.6847 6.5959 20.6601 5.32329 22.4646 6.17803Z" fill="url(#paint0_linear_40432_2538)"/>
<path d="M31.2016 19.4729C29.4541 20.3656 27.9915 21.0684 27.9725 21.0304C27.9346 20.9924 27.7256 20.5555 27.4787 20.0617C27.2128 19.4729 26.7759 18.96 26.2821 18.6371L25.5033 18.1243L14.8476 18.0673L4.19181 18.0293L3.35606 18.4662C2.78624 18.7701 2.31138 19.2259 1.9315 19.8338L1.36167 20.7455L1.30469 25.456C1.2667 28.3621 1.32368 30.4325 1.43765 30.9074C1.74156 32.009 2.40635 32.8828 3.35606 33.4146C4.17281 33.8705 4.36275 33.8895 8.1426 33.9464L12.0934 34.0034L10.004 37.0615C8.63645 39.0749 7.91467 40.3095 7.91467 40.6324C7.91467 41.5061 9.05432 42.1709 9.81409 41.7721C10.023 41.6581 11.2007 40.0626 12.4353 38.2201C14.4297 35.2191 14.6576 34.9151 14.8855 35.238C19.0833 41.5251 19.1972 41.6771 19.805 41.7341C20.5458 41.81 21.4006 41.1642 21.4006 40.5184C21.4006 40.2525 20.5458 38.809 19.3112 36.9665L17.2218 33.8895L21.2676 33.7945C24.5916 33.7185 25.3893 33.6425 25.8832 33.3766C26.6619 32.9587 27.3837 32.066 27.6686 31.2303L27.8776 30.5655L31.2775 32.275C34.1836 33.7565 34.7345 33.9654 35.1334 33.8135C35.3993 33.6995 35.7222 33.4526 35.8361 33.2247C35.9691 32.9587 36.0261 30.6225 35.9881 25.703L35.9311 18.5611L35.4753 18.2003C35.2283 18.0103 34.8864 17.8394 34.7155 17.8584C34.5445 17.8584 32.968 18.5801 31.2016 19.4729Z" fill="url(#paint1_linear_40432_2538)"/>
<defs>
<linearGradient id="paint0_linear_40432_2538" x1="3.34131" y1="21.7114" x2="48.3747" y2="-50.1488" gradientUnits="userSpaceOnUse">
<stop stop-color="#A854E9"/>
<stop offset="1" stop-color="#4F91FC"/>
</linearGradient>
<linearGradient id="paint1_linear_40432_2538" x1="5.25239" y1="49.793" x2="79.1173" y2="-42.5246" gradientUnits="userSpaceOnUse">
<stop stop-color="#A854E9"/>
<stop offset="1" stop-color="#4F91FC"/>
</linearGradient>
</defs>
</svg>
