<svg width="42" height="38" viewBox="0 0 42 38" fill="none" xmlns="http://www.w3.org/2000/svg">
<path d="M6.31956 0.940104C5.69323 1.09089 5.1249 1.53163 4.78855 2.08836C4.48698 2.6219 4.47538 2.69149 4.44059 4.66325C4.40579 5.8927 4.45219 6.92497 4.52178 7.28453C4.68416 7.99204 5.1713 8.61837 5.83242 8.94313L6.33116 9.1867H4.52178C2.85158 9.1867 2.6776 9.20989 2.20206 9.45346C1.8657 9.63904 1.57574 9.91741 1.34377 10.2886L0.995809 10.8453L0.961014 13.0606C0.914619 15.5311 0.984211 15.9255 1.55254 16.575C2.32965 17.4565 1.80771 17.4217 11.4925 17.4217H20.1335L20.9686 16.6214C21.4209 16.1806 22.14 15.5775 22.5576 15.276L23.3231 14.7308V13.0374C23.3231 12.0979 23.2651 11.1353 23.1955 10.8917C23.0563 10.3698 22.3604 9.55785 21.8733 9.34908C21.5601 9.20989 21.6993 9.19829 23.0911 9.1867C24.9237 9.1867 25.3876 9.08231 25.9908 8.53718C26.7447 7.85286 26.8258 7.4817 26.7795 4.80243L26.7447 2.48272L26.3967 1.97238C26.1995 1.69401 25.8052 1.34605 25.5268 1.18367L25.0049 0.893709L15.842 0.870512C10.8082 0.858913 6.51673 0.893709 6.31956 0.940104Z" fill="url(#paint0_linear_40432_2547)"/>
<path d="M29.3433 15.2196C27.6615 15.4284 25.7941 16.1127 24.4023 17.0406C23.4976 17.6321 22.013 19.0588 21.4098 19.917C18.603 23.8722 18.603 29.1959 21.4098 33.1394C22.0478 34.0209 23.4048 35.3316 24.3559 35.9695C28.1138 38.5096 33.1476 38.5328 36.9055 36.0275C39.1789 34.5197 40.8027 32.3159 41.603 29.6483C42.0089 28.3028 42.1249 25.7279 41.8465 24.3825C41.371 22.0976 40.3503 20.1722 38.7497 18.5716C37.1491 16.9594 35.5601 16.0315 33.484 15.5096C32.2777 15.208 30.4683 15.0804 29.3433 15.2196ZM31.373 19.1863C31.4774 19.3255 31.5586 19.5923 31.5586 19.7547C31.5586 20.033 31.6166 20.0794 32.0573 20.149C32.8808 20.2882 34.3191 20.8913 34.5742 21.2161C34.8874 21.622 34.8758 22.1208 34.5162 22.4687C34.1451 22.8515 33.7275 22.8399 32.8228 22.4223C32.4169 22.2252 31.9413 22.0396 31.7674 21.9932L31.4426 21.9236V23.5474V25.1596L32.3473 25.4844C34.0755 26.0875 34.8874 26.7834 35.2237 27.9317C35.8037 29.9498 34.5858 31.678 32.2313 32.1536L31.5586 32.2811V32.9771C31.5586 33.731 31.315 34.1253 30.8395 34.1253C30.3639 34.1253 30.1668 33.8006 30.1668 33.0234V32.3043L29.1577 32.0608C28.0558 31.7824 26.6176 31.1561 26.2348 30.7733C25.7129 30.2514 26.1189 29.1379 26.8264 29.1379C26.9771 29.1379 27.6151 29.3931 28.253 29.7063C28.8909 30.031 29.61 30.321 29.8536 30.3674L30.2827 30.437V28.7552V27.0618L29.6332 26.8762C27.0003 26.1107 25.8869 24.5449 26.5132 22.4455C26.8612 21.2741 28.1486 20.2998 29.5868 20.1258C30.1436 20.0562 30.1668 20.0446 30.1668 19.7083C30.1668 18.9892 30.9903 18.6412 31.373 19.1863Z" fill="url(#paint1_linear_40432_2547)"/>
<path d="M29.2974 22.0524C29.0422 22.1684 28.7639 22.3772 28.6827 22.5279C28.4507 22.9107 28.4855 23.6646 28.7407 24.0126C28.961 24.3141 29.8541 24.8361 30.1441 24.8477C30.2485 24.8477 30.2833 24.4649 30.2833 23.3398C30.2833 21.8552 30.2833 21.832 30.0281 21.832C29.8773 21.832 29.5526 21.9364 29.2974 22.0524Z" fill="url(#paint2_linear_40432_2547)"/>
<path d="M31.4453 28.9773V30.5547L31.8281 30.4735C32.3616 30.3575 32.7907 30.1139 32.9995 29.8124C33.2663 29.4412 33.2431 28.5481 32.9531 28.1886C32.7444 27.9102 31.8281 27.3999 31.5613 27.3999C31.4917 27.3999 31.4453 27.9914 31.4453 28.9773Z" fill="url(#paint3_linear_40432_2547)"/>
<path d="M6.75037 18.4907C6.10085 18.6299 5.16137 19.5346 5.05698 20.1029C5.02219 20.3233 4.99899 21.5527 5.02219 22.8402L5.05698 25.1715L5.40494 25.6702C5.60212 25.9486 5.97327 26.2734 6.27483 26.4241L6.79677 26.6909L4.26828 26.7025C2.16893 26.7025 1.68179 26.7373 1.36863 26.8881C0.846696 27.1549 0.48714 27.5028 0.231972 28.0131C0.0231972 28.4075 0 28.6975 0 30.8316C0 33.0933 0.0115986 33.2325 0.266767 33.6965C0.417549 33.9516 0.765506 34.3344 1.03227 34.5315L1.54261 34.8795L10.5779 34.9143L19.6132 34.9375L19.0797 34.114C16.7715 30.5416 16.1916 26.1342 17.5255 22.1559C17.8966 21.054 18.5345 19.7202 19.0449 18.9778C19.2189 18.7111 19.3348 18.4675 19.3 18.4211C19.1841 18.3051 7.30711 18.3631 6.75037 18.4907Z" fill="url(#paint4_linear_40432_2547)"/>
<defs>
<linearGradient id="paint0_linear_40432_2547" x1="3.89719" y1="22.8647" x2="53.7687" y2="-44.5134" gradientUnits="userSpaceOnUse">
<stop stop-color="#A854E9"/>
<stop offset="1" stop-color="#4F91FC"/>
</linearGradient>
<linearGradient id="paint1_linear_40432_2547" x1="21.8937" y1="45.3634" x2="92.7316" y2="-15.8557" gradientUnits="userSpaceOnUse">
<stop stop-color="#A854E9"/>
<stop offset="1" stop-color="#4F91FC"/>
</linearGradient>
<linearGradient id="paint2_linear_40432_2547" x1="28.7277" y1="25.8392" x2="36.3631" y2="21.9913" gradientUnits="userSpaceOnUse">
<stop stop-color="#A854E9"/>
<stop offset="1" stop-color="#4F91FC"/>
</linearGradient>
<linearGradient id="paint3_linear_40432_2547" x1="31.6439" y1="31.592" x2="39.3726" y2="27.9015" gradientUnits="userSpaceOnUse">
<stop stop-color="#A854E9"/>
<stop offset="1" stop-color="#4F91FC"/>
</linearGradient>
<linearGradient id="paint4_linear_40432_2547" x1="2.23752" y1="40.3887" x2="54.4487" y2="-13.0688" gradientUnits="userSpaceOnUse">
<stop stop-color="#A854E9"/>
<stop offset="1" stop-color="#4F91FC"/>
</linearGradient>
</defs>
</svg>
