<svg width="18" height="19" viewBox="0 0 18 19" fill="none" xmlns="http://www.w3.org/2000/svg">
<path d="M9.92538 0.653451C10.5821 0.650931 11.2389 0.657531 11.8954 0.67325L12.07 0.67955C12.2716 0.68675 12.4705 0.69575 12.7108 0.706549C13.6684 0.751548 14.3217 0.902743 14.895 1.12504C15.489 1.35363 15.9894 1.66322 16.4898 2.1636C16.9473 2.61323 17.3014 3.15712 17.5274 3.75745C17.7497 4.33073 17.9009 4.985 17.9459 5.94257C17.9567 6.18196 17.9657 6.38176 17.9729 6.58335L17.9783 6.75794C17.9943 7.41419 18.0012 8.07063 17.999 8.72708L17.9999 9.39845V10.5774C18.0021 11.2342 17.9952 11.8909 17.9792 12.5474L17.9738 12.722C17.9666 12.9236 17.9576 13.1225 17.9468 13.3628C17.9018 14.3204 17.7488 14.9738 17.5274 15.547C17.3021 16.148 16.9479 16.6923 16.4898 17.1418C16.0397 17.5993 15.4956 17.9533 14.895 18.1795C14.3217 18.4017 13.6684 18.5529 12.7108 18.5979C12.4705 18.6087 12.2716 18.6177 12.07 18.6249L11.8954 18.6303C11.2389 18.6463 10.5821 18.6532 9.92538 18.651L9.254 18.6519H8.07594C7.4192 18.6542 6.76246 18.6473 6.10591 18.6312L5.93132 18.6258C5.71767 18.6181 5.50408 18.6091 5.29054 18.5988C4.33297 18.5538 3.67959 18.4008 3.10541 18.1795C2.50485 17.9539 1.96087 17.5997 1.51157 17.1418C1.05352 16.6921 0.699097 16.1478 0.473003 15.547C0.250711 14.9738 0.0995159 14.3204 0.0545174 13.3628C0.0444944 13.1493 0.0354946 12.9357 0.0275183 12.722L0.0230186 12.5474C0.00642639 11.8909 -0.00107416 11.2342 0.000519283 10.5774V8.72708C-0.0019925 8.07064 0.00460798 7.4142 0.0203187 6.75794L0.0266184 6.58335C0.0338182 6.38176 0.0428179 6.18196 0.0536175 5.94257C0.098616 4.9841 0.249811 4.33163 0.472103 3.75745C0.698331 3.15682 1.05345 2.61308 1.51247 2.1645C1.96146 1.70619 2.5051 1.35144 3.10541 1.12504C3.67959 0.902743 4.33207 0.751548 5.29054 0.706549L5.93132 0.67955L6.10591 0.67505C6.76215 0.658467 7.41859 0.650966 8.07504 0.652551L9.92538 0.653451ZM9.00021 5.1533C8.40399 5.14487 7.81203 5.25502 7.25875 5.47735C6.70547 5.69968 6.20189 6.02976 5.77728 6.4484C5.35268 6.86705 5.01551 7.36591 4.78538 7.91599C4.55524 8.46607 4.43673 9.05641 4.43673 9.65269C4.43673 10.249 4.55524 10.8393 4.78538 11.3894C5.01551 11.9395 5.35268 12.4383 5.77728 12.857C6.20189 13.2756 6.70547 13.6057 7.25875 13.828C7.81203 14.0504 8.40399 14.1605 9.00021 14.1521C10.1936 14.1521 11.3382 13.678 12.1821 12.8341C13.026 11.9902 13.5001 10.8457 13.5001 9.65224C13.5001 8.45881 13.026 7.31426 12.1821 6.47037C11.3382 5.62649 10.1936 5.1533 9.00021 5.1533ZM9.00021 6.95324C9.35886 6.94663 9.71522 7.01155 10.0485 7.14422C10.3818 7.27688 10.6853 7.47463 10.9412 7.7259C11.1972 7.97717 11.4006 8.27694 11.5394 8.60769C11.6783 8.93843 11.7498 9.29353 11.7499 9.65224C11.7499 10.0109 11.6785 10.3661 11.5398 10.6969C11.401 11.0276 11.1978 11.3275 10.9419 11.5788C10.686 11.8302 10.3826 12.028 10.0493 12.1608C9.7161 12.2936 9.35976 12.3586 9.00111 12.3522C8.28505 12.3522 7.59832 12.0677 7.09199 11.5614C6.58566 11.055 6.30121 10.3683 6.30121 9.65224C6.30121 8.93618 6.58566 8.24945 7.09199 7.74312C7.59832 7.23679 8.28505 6.95234 9.00111 6.95234L9.00021 6.95324ZM13.7251 3.80334C13.4347 3.81496 13.1601 3.93847 12.9588 4.14801C12.7575 4.35754 12.6451 4.63684 12.6451 4.92741C12.6451 5.21797 12.7575 5.49727 12.9588 5.7068C13.1601 5.91634 13.4347 6.03985 13.7251 6.05147C14.0234 6.05147 14.3096 5.93294 14.5205 5.72197C14.7315 5.511 14.85 5.22486 14.85 4.92651C14.85 4.62815 14.7315 4.34201 14.5205 4.13104C14.3096 3.92007 14.0234 3.80154 13.7251 3.80154V3.80334Z" fill="url(#paint0_linear_40432_2810)"/>
<defs>
<linearGradient id="paint0_linear_40432_2810" x1="2.05352" y1="-5.2661" x2="58.1691" y2="43.3014" gradientUnits="userSpaceOnUse">
<stop stop-color="#A854E9"/>
<stop offset="1" stop-color="#4F91FC"/>
</linearGradient>
</defs>
</svg>
