<svg width="42" height="32" viewBox="0 0 42 32" fill="none" xmlns="http://www.w3.org/2000/svg">
<path d="M20.9607 0.512155C20.7967 0.570704 16.4524 2.15154 11.3 4.02512C6.14768 5.88699 1.70964 7.51466 1.44031 7.64347C0.573784 8.05331 0.620623 8.63881 1.55741 9.07207C1.897 9.2243 3.03286 9.65756 4.09845 10.0323C5.16405 10.407 6.054 10.7349 6.07742 10.7466C6.10084 10.77 5.90177 11.0276 5.64416 11.3438C4.67224 12.5148 4.16871 14.0019 4.0282 16.1448C3.94623 17.4212 3.94623 17.4212 3.57151 17.6671C2.83379 18.1589 2.48249 19.4353 2.85721 20.3135C2.93918 20.5243 3.18508 20.8522 3.39586 21.063C3.75887 21.4143 3.77058 21.4728 3.70032 22.0115C3.40757 24.2481 2.09607 27.2575 0.480105 29.4004C0.210778 29.7517 0 30.0796 0 30.1381C0 30.3138 1.45202 31.3091 2.20146 31.6604L2.95089 32L3.4427 31.7073C4.12187 31.3091 5.00011 30.3372 5.32799 29.6112C5.97203 28.206 6.01887 27.843 6.03058 24.3652C6.03058 21.3791 6.04229 21.1098 6.24136 20.8873C6.48727 20.618 6.78002 19.8803 6.79173 19.5173C6.79173 19.0489 6.53411 18.3931 6.18281 17.9833C5.81981 17.5734 5.81981 17.5734 5.89006 16.5547C6.01887 14.6694 6.60437 13.1237 7.588 12.0932C8.11494 11.5311 8.34914 11.414 14.6959 8.68565C21.6281 5.69963 21.675 5.68792 22.0731 6.2617C22.2722 6.54274 22.3073 7.18678 22.1317 7.50295C22.0614 7.64347 19.9419 8.61539 16.4875 10.0908C13.4429 11.3906 10.937 12.4679 10.9253 12.4796C10.9136 12.4914 13.2673 13.3579 16.1713 14.4118C20.1058 15.8404 21.5345 16.3088 21.8155 16.2619C22.1668 16.2151 41.1016 9.28285 41.5818 9.03694C41.8862 8.873 42.0619 8.48658 41.9799 8.20554C41.933 8.06502 41.652 7.84253 41.3007 7.69031C40.4693 7.31559 21.5579 0.371637 21.3822 0.383346C21.312 0.383346 21.1246 0.441896 20.9607 0.512155Z" fill="url(#paint0_linear_40432_2529)"/>
<path d="M28.3367 16.553C24.894 17.8293 21.9549 18.9067 21.8143 18.9418C21.6504 18.9886 19.4607 18.2509 15.2451 16.7169C11.7673 15.4522 8.89835 14.4218 8.85151 14.4218C8.81638 14.4218 8.78125 15.1127 8.78125 15.9558C8.78125 17.4429 8.79296 17.4898 9.12084 17.9699C9.61265 18.7076 9.75317 19.2462 9.69462 20.265C9.65949 20.9559 9.56581 21.2955 9.3199 21.7639C9.00374 22.3376 9.00374 22.3728 9.17939 22.7241C9.65949 23.6492 13.3949 25.2651 16.4512 25.8857C18.7815 26.3424 21.0532 26.4712 23.3717 26.237C28.1377 25.7803 33.8521 23.5789 34.5313 21.9395C34.6249 21.7287 34.6484 20.4758 34.6366 17.9347L34.6015 14.2461L28.3367 16.553Z" fill="url(#paint1_linear_40432_2529)"/>
<defs>
<linearGradient id="paint0_linear_40432_2529" x1="21" y1="0.383333" x2="22" y2="58.5" gradientUnits="userSpaceOnUse">
<stop stop-color="#A854E9"/>
<stop offset="1" stop-color="#4F91FC"/>
</linearGradient>
<linearGradient id="paint1_linear_40432_2529" x1="21.7103" y1="14.2461" x2="21.9485" y2="36.502" gradientUnits="userSpaceOnUse">
<stop stop-color="#A854E9"/>
<stop offset="1" stop-color="#4F91FC"/>
</linearGradient>
</defs>
</svg>
