<svg width="19" height="20" viewBox="0 0 19 20" fill="none" xmlns="http://www.w3.org/2000/svg">
<path d="M2.125 0.652344C1.56141 0.652344 1.02091 0.876227 0.622398 1.27474C0.223883 1.67326 0 2.21376 0 2.77734C0 3.34093 0.223883 3.88143 0.622398 4.27995C1.02091 4.67846 1.56141 4.90234 2.125 4.90234C2.68859 4.90234 3.22909 4.67846 3.6276 4.27995C4.02612 3.88143 4.25 3.34093 4.25 2.77734C4.25 2.21376 4.02612 1.67326 3.6276 1.27474C3.22909 0.876227 2.68859 0.652344 2.125 0.652344ZM0.125 6.65234C0.0918479 6.65234 0.0600536 6.66551 0.0366116 6.68896C0.0131695 6.7124 0 6.74419 0 6.77734V19.7773C0 19.8463 0.056 19.9023 0.125 19.9023H4.125C4.15815 19.9023 4.18995 19.8892 4.21339 19.8657C4.23683 19.8423 4.25 19.8105 4.25 19.7773V6.77734C4.25 6.74419 4.23683 6.7124 4.21339 6.68896C4.18995 6.66551 4.15815 6.65234 4.125 6.65234H0.125ZM6.625 6.65234C6.59185 6.65234 6.56005 6.66551 6.53661 6.68896C6.51317 6.7124 6.5 6.74419 6.5 6.77734V19.7773C6.5 19.8463 6.556 19.9023 6.625 19.9023H10.625C10.6582 19.9023 10.6899 19.8892 10.7134 19.8657C10.7368 19.8423 10.75 19.8105 10.75 19.7773V12.7773C10.75 12.2801 10.9475 11.8031 11.2992 11.4515C11.6508 11.0999 12.1277 10.9023 12.625 10.9023C13.1223 10.9023 13.5992 11.0999 13.9508 11.4515C14.3025 11.8031 14.5 12.2801 14.5 12.7773V19.7773C14.5 19.8463 14.556 19.9023 14.625 19.9023H18.625C18.6582 19.9023 18.6899 19.8892 18.7134 19.8657C18.7368 19.8423 18.75 19.8105 18.75 19.7773V11.1573C18.75 8.73034 16.64 6.83234 14.225 7.05134C13.4778 7.11936 12.7459 7.30428 12.056 7.59934L10.75 8.15934V6.77734C10.75 6.74419 10.7368 6.7124 10.7134 6.68896C10.6899 6.66551 10.6582 6.65234 10.625 6.65234H6.625Z" fill="url(#paint0_linear_40432_2814)"/>
<defs>
<linearGradient id="paint0_linear_40432_2814" x1="2.13905" y1="-5.6771" x2="61.905" y2="44.7053" gradientUnits="userSpaceOnUse">
<stop stop-color="#A854E9"/>
<stop offset="1" stop-color="#4F91FC"/>
</linearGradient>
</defs>
</svg>
