<svg width="42" height="43" viewBox="0 0 42 43" fill="none" xmlns="http://www.w3.org/2000/svg">
<path d="M19.7753 0.972622C18.789 1.34248 18.074 1.9918 17.6055 2.94522C17.3507 3.47125 17.3425 3.52879 17.3425 4.51509C17.3425 5.51783 17.3507 5.55892 17.6219 6.11783C17.9671 6.81646 18.6411 7.50687 19.2986 7.82742L19.7671 8.05755V9.43838V10.8192L19.0274 10.9589C17.4986 11.2384 15.9945 11.8466 14.7699 12.685L14.1123 13.1288L13.1507 12.1589L12.189 11.1891L12.3123 10.7945C12.6164 9.84112 12.5589 8.91235 12.1315 8.00002C11.4082 6.44659 9.57534 5.60002 7.89041 6.03563C6.50137 6.4055 5.53973 7.35892 5.17808 8.7644C4.93973 9.66851 5.05479 10.5397 5.52329 11.4439C6.34521 13.0137 8.23562 13.7617 9.93699 13.1781L10.3315 13.0384L11.3014 14.0082L12.2712 14.9699L11.8274 15.6274C10.989 16.8521 10.3808 18.3562 10.1014 19.885L9.96164 20.6247H8.58082H7.2L6.96986 20.1562C6.64931 19.4986 5.9589 18.8247 5.26027 18.4795C4.70137 18.2082 4.66027 18.2 3.65753 18.2C2.65479 18.2 2.6137 18.2082 2.05479 18.4795C1.29863 18.8493 0.649315 19.4986 0.279452 20.2548C0.00821918 20.8137 0 20.8548 0 21.8576C0 22.8603 0.00821918 22.9014 0.279452 23.4603C0.649315 24.2165 1.30685 24.8658 2.05479 25.2274C2.56438 25.474 2.72055 25.5151 3.46849 25.5397C4.16712 25.5726 4.38904 25.548 4.8411 25.3918C5.7863 25.0795 6.53425 24.4219 6.99452 23.5014L7.2 23.0904H8.58082H9.96164L10.1014 23.8302C10.3808 25.3589 10.989 26.863 11.8274 28.0877L12.2712 28.7452L11.3014 29.7069L10.3315 30.6685L9.93699 30.5452C8.98356 30.2411 8.05479 30.2986 7.14247 30.726C5.58904 31.4493 4.74247 33.2822 5.17808 34.9507C5.70411 36.9808 7.70959 38.1973 9.68219 37.6795C11.8274 37.1206 12.9863 35.0247 12.3123 32.9206L12.189 32.526L13.1507 31.5562L14.1123 30.5863L14.7863 31.0384C16.0521 31.8932 17.4986 32.4767 19.0274 32.7562L19.7671 32.8959V34.2767V35.6576L19.2986 35.8877C18.6411 36.2082 17.9671 36.8986 17.6219 37.5973C17.3507 38.1562 17.3425 38.1973 17.3425 39.2C17.3425 40.1863 17.3507 40.2439 17.6055 40.7699C18.0822 41.7397 18.8055 42.3891 19.8164 42.7425C20.2192 42.8822 20.4493 42.9069 21.1644 42.8822C21.9452 42.8576 22.0849 42.8247 22.6027 42.5699C23.3589 42.2082 24.0082 41.5589 24.3781 40.8028C24.6493 40.2439 24.6575 40.2028 24.6575 39.2C24.6575 38.2055 24.6493 38.1562 24.3863 37.6137C24.0411 36.9151 23.3507 36.2 22.7014 35.8877L22.2329 35.6576V34.2767V32.8959L22.9726 32.7562C24.5014 32.4767 25.9479 31.8932 27.2137 31.0384L27.8877 30.5863L28.8493 31.5562L29.811 32.526L29.6877 32.9206C29.3753 33.8822 29.4329 34.7945 29.8685 35.7233C30.3205 36.685 31.1918 37.3918 32.3014 37.6795C34.9973 38.3781 37.5205 35.8548 36.8219 33.1589C36.263 31.0302 34.1671 29.8795 32.063 30.5452L31.6685 30.6685L30.6986 29.7069L29.7288 28.7452L30.1808 28.0713C31.0356 26.8055 31.6192 25.3589 31.8986 23.8302L32.0384 23.0904H33.411H34.7836L34.9973 23.5014C35.4822 24.4384 36.2219 25.0795 37.1589 25.3918C37.611 25.548 37.8329 25.5726 38.5315 25.5397C39.2794 25.5151 39.4356 25.474 39.9452 25.2274C40.6931 24.8658 41.3507 24.2165 41.7205 23.4603C41.9918 22.9014 42 22.8603 42 21.8576C42 20.8548 41.9918 20.8137 41.7205 20.2548C41.3507 19.4986 40.7014 18.8493 39.9452 18.4795C39.3863 18.2082 39.3452 18.2 38.3425 18.2C37.3397 18.2 37.2986 18.2082 36.7397 18.4795C36.0411 18.8165 35.3589 19.4904 35.0219 20.1562L34.7918 20.6247H33.411H32.0384L31.8986 19.885C31.6192 18.3562 31.011 16.8521 30.1726 15.6274L29.7288 14.9699L30.6986 14.0082L31.6685 13.0384L32.063 13.1781C34.1096 13.8767 36.263 12.685 36.8219 10.5397C37.5205 7.86029 34.989 5.33701 32.3014 6.03563C30.1726 6.59454 29.0137 8.69865 29.6877 10.7945L29.811 11.1891L28.8493 12.1589L27.8877 13.1288L27.2301 12.685C26.0055 11.8466 24.5014 11.2384 22.9726 10.9589L22.2329 10.8192V9.43838V8.05755L22.6438 7.85207C23.5644 7.3918 24.2219 6.64385 24.5342 5.69865C24.6904 5.24659 24.7151 5.02468 24.6822 4.32605C24.6575 3.5781 24.6164 3.42194 24.3699 2.91235C24.0082 2.15618 23.3589 1.50687 22.6027 1.14523C22.0685 0.88221 21.9534 0.857552 21.1233 0.841114C20.3836 0.816456 20.137 0.841114 19.7753 0.972622ZM22.5205 16.0137C23.3507 16.2932 23.9918 16.7123 24.6082 17.3863C25.4384 18.2904 25.8493 19.3671 25.8493 20.6247C25.8493 21.726 25.5616 22.5973 24.8877 23.526C24.7233 23.7397 24.6082 23.9288 24.6247 23.9452C24.6411 23.9617 24.8219 24.0603 25.0274 24.1589C25.9479 24.6274 27.0164 25.5069 27.6575 26.337L28.0027 26.7891L27.7562 27.0932C27.6247 27.2658 27.2466 27.6603 26.926 27.9726L26.3425 28.5315L25.989 28.0548C25.1178 26.8795 23.7452 25.9754 22.3726 25.6795C21.3945 25.4658 19.8575 25.5397 18.9863 25.8356C17.811 26.2384 16.9151 26.9041 16.1425 27.948C15.9041 28.2603 15.6904 28.5151 15.6658 28.5151C15.5918 28.5151 14.3014 27.2165 14.137 26.9863C14.0301 26.8219 14.0548 26.7644 14.6548 26.0411C15.3616 25.1945 15.8959 24.7425 16.7671 24.274C17.0877 24.1096 17.3589 23.9534 17.3753 23.9452C17.3918 23.9288 17.2767 23.7397 17.1123 23.526C16.4384 22.5973 16.1507 21.726 16.1507 20.6247C16.1507 19.3671 16.5616 18.2904 17.3918 17.3863C18.7562 15.8987 20.663 15.3891 22.5205 16.0137Z" fill="url(#paint0_linear_40432_2521)"/>
<defs>
<linearGradient id="paint0_linear_40432_2521" x1="4.79147" y1="56.7194" x2="135.882" y2="-56.5799" gradientUnits="userSpaceOnUse">
<stop stop-color="#A854E9"/>
<stop offset="1" stop-color="#4F91FC"/>
</linearGradient>
</defs>
</svg>
