<svg width="44" height="44" viewBox="0 0 44 44" fill="none" xmlns="http://www.w3.org/2000/svg">
<path d="M21.6809 0.781237C21.4546 0.856661 1.66854 14.0055 1.33333 14.3156C0.95621 14.6508 0.788602 15.0949 0.830504 15.6648C0.864026 16.2598 1.08192 16.6453 1.54284 16.9638C1.84453 17.1733 2.55686 17.2822 2.95074 17.1816C3.06807 17.1481 7.45939 14.2653 12.7139 10.7623L22.2675 4.39318L31.8212 10.7623C37.0757 14.2653 41.467 17.1481 41.5843 17.1816C42.0117 17.2906 42.6905 17.1733 43.0341 16.9386C43.8721 16.352 43.956 14.9944 43.2017 14.3156C42.9335 14.0641 23.2061 0.932083 22.9128 0.806377C22.653 0.697433 22.0077 0.680672 21.6809 0.781237Z" fill="url(#paint0_linear_40432_2511)"/>
<path d="M12.3381 14.2736L2.44922 20.4583V30.0036V39.5488L2.64197 40.1354C3.15317 41.6607 4.13368 42.7082 5.63376 43.3284L6.22039 43.5714L22.0174 43.5965C33.222 43.6133 37.9401 43.5882 38.2586 43.5211C39.0212 43.3619 40.0101 42.8088 40.6302 42.197C41.2504 41.5685 41.6107 40.9902 41.8957 40.1354L42.0884 39.5488V30.0036V20.4583L32.1744 14.2652C26.7188 10.8628 22.2521 8.08047 22.2437 8.08885C22.2353 8.08885 17.7769 10.8711 12.3381 14.2736ZM25.5372 22.2014V25.5117H28.8474H32.1577V28.78V32.0484H28.8474H25.5372V35.3167V38.5851H22.2688H19.0005V35.3167V32.0484H15.6902H12.38V28.78V25.5117H15.6902H19.0005V22.2014V18.8912H22.2688H25.5372V22.2014Z" fill="url(#paint1_linear_40432_2511)"/>
<defs>
<linearGradient id="paint0_linear_40432_2511" x1="5.71773" y1="22.6506" x2="44.3312" y2="-64.1845" gradientUnits="userSpaceOnUse">
<stop stop-color="#A854E9"/>
<stop offset="1" stop-color="#4F91FC"/>
</linearGradient>
<linearGradient id="paint1_linear_40432_2511" x1="6.97136" y1="55.2782" x2="118.774" y2="-52.7276" gradientUnits="userSpaceOnUse">
<stop stop-color="#A854E9"/>
<stop offset="1" stop-color="#4F91FC"/>
</linearGradient>
</defs>
</svg>
